<svg
      width="60"
      height="60"
      viewBox="0 0 60 60"
      fill="none"
      xmlns="http://www.w3.org/2000/svg"
    >
      <path
        d="M30.0102 1.74541e-06C24.0764 -0.00202193 18.2752 1.75573 13.3403 5.05094C8.40553 8.34615 4.55876 13.0308 2.28656 18.5124C0.0143671 23.994 -0.581193 30.0263 0.575208 35.8464C1.73161 41.6665 4.58802 47.013 8.78319 51.2096C12.9784 55.4062 18.3238 58.2644 24.1435 59.4228C29.9632 60.5812 35.9958 59.9877 41.4781 57.7174C46.9605 55.447 51.6465 51.6019 54.9434 46.6682C58.2403 41.7345 60 35.9339 60 30C60.0013 22.0449 56.8425 14.415 51.2183 8.78893C45.5941 3.16284 37.9654 0.00136824 30.0102 1.74541e-06V1.74541e-06ZM43.2161 33.3157L23.2025 47.5781C21.7687 48.5998 20.1991 47.643 20.6544 46.0248L24.3439 32.9131L32.713 29.9591H22.4419V30H17.1718C15.4941 30 15.2496 27.7925 16.8044 26.6844L36.8179 12.4219C38.2515 11.4002 39.8215 12.3571 39.366 13.9753L34.8567 30H42.8487C44.5261 30 44.7709 32.2077 43.2161 33.3157Z"
        fill="#FFCA00"
      />
    </svg>